<svg width="44" height="45" viewBox="0 0 44 45" fill="none" xmlns="http://www.w3.org/2000/svg">
<path d="M28 19.5C33.724 19.5 38.5 25.0149 38.5 32C38.5 38.9851 33.724 44.5 28 44.5C22.276 44.5 17.5 38.9851 17.5 32C17.5 25.0149 22.276 19.5 28 19.5Z" fill="#D9D9D9" stroke="#3D3D3D"/>
<path d="M16 19.5C21.724 19.5 26.5 25.0149 26.5 32C26.5 38.9851 21.724 44.5 16 44.5C10.276 44.5 5.5 38.9851 5.5 32C5.5 25.0149 10.276 19.5 16 19.5Z" fill="#D9D9D9" stroke="#3D3D3D"/>
<rect x="16" y="20" width="12" height="24" fill="#D9D9D9"/>
<rect x="16" y="44" width="12" height="1" fill="#3D3D3D"/>
<path d="M9.54545 0H33.7273L43.5 20H0L9.54545 0Z" fill="#3D3D3D"/>
<rect x="29.1447" y="14.0085" width="17" height="1" rx="0.5" transform="rotate(90.4878 29.1447 14.0085)" fill="#3D3D3D"/>
</svg>
