<svg width="24" height="24" viewBox="0 0 24 24" fill="none" xmlns="http://www.w3.org/2000/svg">
<circle cx="11.8314" cy="11.8315" r="3.94381" fill="#D9D9D9"/>
<rect x="16.6055" y="11.6238" width="7.05734" height="0.830275" rx="0.415138" fill="#D9D9D9"/>
<rect y="11.6238" width="7.05734" height="0.830275" rx="0.415138" fill="#D9D9D9"/>
<rect x="12.039" width="7.05734" height="0.830275" rx="0.415138" transform="rotate(90 12.039 0)" fill="#D9D9D9"/>
<rect x="12.039" y="16.6055" width="7.05734" height="0.830275" rx="0.415138" transform="rotate(90 12.039 16.6055)" fill="#D9D9D9"/>
<rect x="15.7752" y="7.23535" width="7.05734" height="0.830275" rx="0.415138" transform="rotate(-42.2438 15.7752 7.23535)" fill="#D9D9D9"/>
<rect x="2.07568" y="20.5198" width="7.05734" height="0.830275" rx="0.415138" transform="rotate(-42.2438 2.07568 20.5198)" fill="#D9D9D9"/>
<rect width="7.05734" height="0.830275" rx="0.415138" transform="matrix(-0.740291 -0.672287 -0.672287 0.740291 8.68863 7.65063)" fill="#D9D9D9"/>
<rect width="7.05734" height="0.830275" rx="0.415138" transform="matrix(-0.740291 -0.672287 -0.672287 0.740291 21.1428 20.1047)" fill="#D9D9D9"/>
</svg>
